<mxfile host="65bd71144e">
    <diagram id="QngYUAGS77yo_UsmzYIc" name="Page-1">
        <mxGraphModel dx="510" dy="719" grid="1" gridSize="10" guides="1" tooltips="1" connect="1" arrows="1" fold="1" page="1" pageScale="1" pageWidth="1169" pageHeight="827" math="0" shadow="0">
            <root>
                <mxCell id="0"/>
                <mxCell id="1" parent="0"/>
                <mxCell id="2" value="Cas d'utilisation" style="rounded=0;whiteSpace=wrap;html=1;fillColor=none;strokeColor=none;align=center;verticalAlign=middle;" vertex="1" parent="1">
                    <mxGeometry x="157" y="10" width="230" height="20" as="geometry"/>
                </mxCell>
                <mxCell id="3" value="&lt;font style=&quot;font-size: 6px;&quot;&gt;Conducteur&lt;/font&gt;" style="shape=umlActor;verticalLabelPosition=bottom;verticalAlign=top;outlineConnect=0;fillColor=none;html=1;" vertex="1" parent="1">
                    <mxGeometry x="30" y="110" width="20" height="40" as="geometry"/>
                </mxCell>
                <mxCell id="4" value="S'inscrire" style="ellipse;whiteSpace=wrap;html=1;fillColor=none;" vertex="1" parent="1">
                    <mxGeometry x="199" y="60" width="161" height="40" as="geometry"/>
                </mxCell>
                <mxCell id="5" value="Se connecter" style="ellipse;whiteSpace=wrap;html=1;fillColor=none;" vertex="1" parent="1">
                    <mxGeometry x="203" y="123" width="157" height="40" as="geometry"/>
                </mxCell>
                <mxCell id="7" value="&lt;font style=&quot;font-size: 11px;&quot;&gt;Définir un trajet à effectuer&lt;/font&gt;" style="ellipse;whiteSpace=wrap;html=1;fillColor=none;" vertex="1" parent="1">
                    <mxGeometry x="203" y="242" width="157" height="38" as="geometry"/>
                </mxCell>
                <mxCell id="34" value="" style="edgeStyle=none;html=1;fontSize=11;" edge="1" parent="1" source="11" target="5">
                    <mxGeometry relative="1" as="geometry"/>
                </mxCell>
                <mxCell id="11" value="Activer la géolocalisation" style="ellipse;whiteSpace=wrap;html=1;fillColor=none;" vertex="1" parent="1">
                    <mxGeometry x="203" y="183" width="157" height="40" as="geometry"/>
                </mxCell>
                <mxCell id="12" value="" style="endArrow=classic;html=1;fontSize=8;entryX=0.032;entryY=0.329;entryDx=0;entryDy=0;entryPerimeter=0;" edge="1" parent="1" target="4">
                    <mxGeometry width="50" height="50" relative="1" as="geometry">
                        <mxPoint x="60" y="130" as="sourcePoint"/>
                        <mxPoint x="200" y="130" as="targetPoint"/>
                        <Array as="points"/>
                    </mxGeometry>
                </mxCell>
                <mxCell id="13" value="" style="endArrow=classic;html=1;fontSize=8;entryX=0.065;entryY=0.281;entryDx=0;entryDy=0;entryPerimeter=0;" edge="1" parent="1" target="5">
                    <mxGeometry width="50" height="50" relative="1" as="geometry">
                        <mxPoint x="60" y="140" as="sourcePoint"/>
                        <mxPoint x="200" y="179" as="targetPoint"/>
                        <Array as="points"/>
                    </mxGeometry>
                </mxCell>
                <mxCell id="15" value="" style="endArrow=classic;html=1;fontSize=8;entryX=0;entryY=0.5;entryDx=0;entryDy=0;" edge="1" parent="1" target="11">
                    <mxGeometry width="50" height="50" relative="1" as="geometry">
                        <mxPoint x="60" y="150" as="sourcePoint"/>
                        <mxPoint x="222.08798670287854" y="142.5428167399873" as="targetPoint"/>
                        <Array as="points"/>
                    </mxGeometry>
                </mxCell>
                <mxCell id="16" value="" style="endArrow=classic;html=1;fontSize=8;entryX=0;entryY=0.5;entryDx=0;entryDy=0;" edge="1" parent="1" target="7">
                    <mxGeometry width="50" height="50" relative="1" as="geometry">
                        <mxPoint x="70" y="170" as="sourcePoint"/>
                        <mxPoint x="209.99999999999955" y="248" as="targetPoint"/>
                        <Array as="points"/>
                    </mxGeometry>
                </mxCell>
                <mxCell id="17" value="&lt;font style=&quot;font-size: 6px;&quot;&gt;Passager&lt;/font&gt;" style="shape=umlActor;verticalLabelPosition=bottom;verticalAlign=top;outlineConnect=0;fillColor=none;html=1;" vertex="1" parent="1">
                    <mxGeometry x="30" y="380" width="20" height="40" as="geometry"/>
                </mxCell>
                <mxCell id="21" value="" style="endArrow=classic;html=1;fontSize=8;fillColor=#1ba1e2;strokeColor=#006EAF;entryX=0;entryY=0.5;entryDx=0;entryDy=0;" edge="1" parent="1" source="17" target="4">
                    <mxGeometry width="50" height="50" relative="1" as="geometry">
                        <mxPoint x="63" y="387" as="sourcePoint"/>
                        <mxPoint x="203" y="127" as="targetPoint"/>
                        <Array as="points"/>
                    </mxGeometry>
                </mxCell>
                <mxCell id="22" value="" style="endArrow=classic;html=1;fontSize=8;fillColor=#1ba1e2;strokeColor=#006EAF;entryX=0;entryY=0.5;entryDx=0;entryDy=0;" edge="1" parent="1" target="5">
                    <mxGeometry width="50" height="50" relative="1" as="geometry">
                        <mxPoint x="52" y="390" as="sourcePoint"/>
                        <mxPoint x="200" y="190" as="targetPoint"/>
                        <Array as="points"/>
                    </mxGeometry>
                </mxCell>
                <mxCell id="23" value="&lt;font style=&quot;font-size: 8px;&quot;&gt;Retrouver les passagers effectuant un même trajet que soi&lt;/font&gt;" style="ellipse;whiteSpace=wrap;html=1;fillColor=none;" vertex="1" parent="1">
                    <mxGeometry x="200" y="300" width="160" height="38" as="geometry"/>
                </mxCell>
                <mxCell id="24" value="" style="endArrow=classic;html=1;fontSize=8;entryX=0;entryY=0.5;entryDx=0;entryDy=0;" edge="1" parent="1" target="23">
                    <mxGeometry width="50" height="50" relative="1" as="geometry">
                        <mxPoint x="60" y="170" as="sourcePoint"/>
                        <mxPoint x="209.99999999999966" y="307.9999999999999" as="targetPoint"/>
                        <Array as="points"/>
                    </mxGeometry>
                </mxCell>
                <mxCell id="25" value="" style="endArrow=classic;html=1;fontSize=8;fillColor=#1ba1e2;strokeColor=#006EAF;entryX=0.017;entryY=0.737;entryDx=0;entryDy=0;entryPerimeter=0;" edge="1" parent="1" target="11">
                    <mxGeometry width="50" height="50" relative="1" as="geometry">
                        <mxPoint x="55" y="397" as="sourcePoint"/>
                        <mxPoint x="195" y="247" as="targetPoint"/>
                        <Array as="points"/>
                    </mxGeometry>
                </mxCell>
                <mxCell id="26" value="" style="endArrow=classic;html=1;fontSize=8;fillColor=#1ba1e2;strokeColor=#006EAF;entryX=0.017;entryY=0.713;entryDx=0;entryDy=0;entryPerimeter=0;" edge="1" parent="1" target="7">
                    <mxGeometry width="50" height="50" relative="1" as="geometry">
                        <mxPoint x="60" y="404" as="sourcePoint"/>
                        <mxPoint x="203.1500000000001" y="300.778" as="targetPoint"/>
                        <Array as="points"/>
                    </mxGeometry>
                </mxCell>
                <mxCell id="27" value="&lt;font style=&quot;font-size: 8px;&quot;&gt;Retrouver les conducteurs effectuant un même trajet que soi&lt;/font&gt;" style="ellipse;whiteSpace=wrap;html=1;fillColor=none;" vertex="1" parent="1">
                    <mxGeometry x="200" y="542" width="160" height="38" as="geometry"/>
                </mxCell>
                <mxCell id="29" value="" style="endArrow=classic;html=1;fontSize=8;fillColor=#1ba1e2;strokeColor=#006EAF;entryX=0;entryY=0.5;entryDx=0;entryDy=0;" edge="1" parent="1" target="27">
                    <mxGeometry width="50" height="50" relative="1" as="geometry">
                        <mxPoint x="60" y="420" as="sourcePoint"/>
                        <mxPoint x="212.54999999999995" y="316.09399999999994" as="targetPoint"/>
                        <Array as="points"/>
                    </mxGeometry>
                </mxCell>
                <mxCell id="30" value="&lt;font style=&quot;font-size: 8px;&quot;&gt;Marquer la recherche comme terminéé (vehicule rempli)&lt;/font&gt;" style="ellipse;whiteSpace=wrap;html=1;fillColor=none;" vertex="1" parent="1">
                    <mxGeometry x="199" y="361" width="161" height="38" as="geometry"/>
                </mxCell>
                <mxCell id="31" value="" style="endArrow=classic;html=1;fontSize=8;entryX=0;entryY=0.5;entryDx=0;entryDy=0;" edge="1" parent="1" target="30">
                    <mxGeometry width="50" height="50" relative="1" as="geometry">
                        <mxPoint x="50" y="190" as="sourcePoint"/>
                        <mxPoint x="390" y="90" as="targetPoint"/>
                        <Array as="points"/>
                    </mxGeometry>
                </mxCell>
                <mxCell id="32" value="&lt;font style=&quot;font-size: 8px;&quot;&gt;Marquer la recherche comme terminée (vehicule trouvé)&lt;/font&gt;" style="ellipse;whiteSpace=wrap;html=1;fillColor=none;" vertex="1" parent="1">
                    <mxGeometry x="325" y="500" width="150" height="38" as="geometry"/>
                </mxCell>
                <mxCell id="33" value="" style="endArrow=classic;html=1;fontSize=8;fillColor=#1ba1e2;strokeColor=#006EAF;entryX=0;entryY=0.5;entryDx=0;entryDy=0;" edge="1" parent="1" target="32">
                    <mxGeometry width="50" height="50" relative="1" as="geometry">
                        <mxPoint x="70" y="410" as="sourcePoint"/>
                        <mxPoint x="230" y="425.5" as="targetPoint"/>
                        <Array as="points"/>
                    </mxGeometry>
                </mxCell>
                <mxCell id="41" value="&lt;font style=&quot;font-size: 13px;&quot;&gt;Modifier son compte&lt;/font&gt;" style="ellipse;whiteSpace=wrap;html=1;fillColor=none;" vertex="1" parent="1">
                    <mxGeometry x="203" y="430" width="161" height="38" as="geometry"/>
                </mxCell>
                <mxCell id="42" value="" style="endArrow=classic;html=1;fontSize=8;entryX=0.089;entryY=0.232;entryDx=0;entryDy=0;entryPerimeter=0;" edge="1" parent="1" target="41">
                    <mxGeometry width="50" height="50" relative="1" as="geometry">
                        <mxPoint x="30" y="180" as="sourcePoint"/>
                        <mxPoint x="209" y="390" as="targetPoint"/>
                        <Array as="points"/>
                    </mxGeometry>
                </mxCell>
                <mxCell id="43" value="" style="endArrow=classic;html=1;fontSize=8;fillColor=#1ba1e2;strokeColor=#006EAF;entryX=0;entryY=0.5;entryDx=0;entryDy=0;" edge="1" parent="1" target="41">
                    <mxGeometry width="50" height="50" relative="1" as="geometry">
                        <mxPoint x="80" y="400" as="sourcePoint"/>
                        <mxPoint x="335" y="529.0000000000002" as="targetPoint"/>
                        <Array as="points"/>
                    </mxGeometry>
                </mxCell>
                <mxCell id="44" value="&lt;font style=&quot;font-size: 13px;&quot;&gt;Supprimer son compte&lt;/font&gt;" style="ellipse;whiteSpace=wrap;html=1;fillColor=none;" vertex="1" parent="1">
                    <mxGeometry x="199.5" y="607" width="161" height="38" as="geometry"/>
                </mxCell>
                <mxCell id="45" value="" style="endArrow=classic;html=1;fontSize=8;fillColor=#1ba1e2;strokeColor=#006EAF;entryX=0;entryY=0.5;entryDx=0;entryDy=0;" edge="1" parent="1" target="44">
                    <mxGeometry width="50" height="50" relative="1" as="geometry">
                        <mxPoint x="60" y="440" as="sourcePoint"/>
                        <mxPoint x="210.00000000000017" y="571" as="targetPoint"/>
                        <Array as="points"/>
                    </mxGeometry>
                </mxCell>
                <mxCell id="46" value="" style="endArrow=classic;html=1;fontSize=8;entryX=0.046;entryY=0.286;entryDx=0;entryDy=0;entryPerimeter=0;" edge="1" parent="1" target="44">
                    <mxGeometry width="50" height="50" relative="1" as="geometry">
                        <mxPoint x="20" y="180" as="sourcePoint"/>
                        <mxPoint x="227.32899999999995" y="448.81600000000003" as="targetPoint"/>
                        <Array as="points"/>
                    </mxGeometry>
                </mxCell>
                <mxCell id="47" value="&lt;font style=&quot;font-size: 13px;&quot;&gt;Se déconnecter&lt;br&gt;&lt;/font&gt;" style="ellipse;whiteSpace=wrap;html=1;fillColor=none;" vertex="1" parent="1">
                    <mxGeometry x="180" y="690" width="161" height="38" as="geometry"/>
                </mxCell>
                <mxCell id="48" value="" style="endArrow=classic;html=1;fontSize=8;fillColor=#1ba1e2;strokeColor=#006EAF;entryX=0;entryY=0.263;entryDx=0;entryDy=0;entryPerimeter=0;" edge="1" parent="1" target="47">
                    <mxGeometry width="50" height="50" relative="1" as="geometry">
                        <mxPoint x="40" y="450" as="sourcePoint"/>
                        <mxPoint x="209.5000000000001" y="636" as="targetPoint"/>
                        <Array as="points"/>
                    </mxGeometry>
                </mxCell>
                <mxCell id="49" value="" style="endArrow=classic;html=1;fontSize=8;entryX=0;entryY=0;entryDx=0;entryDy=0;" edge="1" parent="1" target="47">
                    <mxGeometry width="50" height="50" relative="1" as="geometry">
                        <mxPoint x="20" y="210" as="sourcePoint"/>
                        <mxPoint x="216.90599999999995" y="627.8679999999999" as="targetPoint"/>
                        <Array as="points"/>
                    </mxGeometry>
                </mxCell>
            </root>
        </mxGraphModel>
    </diagram>
</mxfile>